# xmcd CD database file
#
# Track frame offsets:
#	150
#	12345
#	23197
#	35177
#	52532
#	63372
#	72907
#	79955
#	84925
#	92062
#	107687
#	120502
#	131182
#	136745
#	146092
#
# Disc length: 2130 seconds
#
# Revision: 0
# Processed by: cddbd v1.5.1PL0 Copyright (c) Steve Scherf et al.
# Submitted via: CDex 1.51
#
DISCID=c708500f
DTITLE=NUNCHAKU - Best Of 1993-1998
DYEAR=0000
DGENRE=Hardcore
TTITLE0=やってみよう
TTITLE1=るれくてしラェフ？
TTITLE2=３コードで悪いか
TTITLE3=アナル窒息
TTITLE4=めおとチック
TTITLE5=マラダイス
TTITLE6=ヌンチャクラ
TTITLE7=アナタBOMBワタシ爆死
TTITLE8=くじゃく王’９６
TTITLE9=都部ふぶく
TTITLE10=人情ヴァイオレンス
TTITLE11=腕前アベニュー
TTITLE12=スポーツ助け舟
TTITLE13=黒ぶちロックンロール
TTITLE14=ずぼらな瞳
EXTD=YEAR: 0000
EXTT0=
EXTT1=
EXTT2=
EXTT3=
EXTT4=
EXTT5=
EXTT6=
EXTT7=
EXTT8=
EXTT9=
EXTT10=
EXTT11=
EXTT12=
EXTT13=
EXTT14=
PLAYORDER=
